<?xml version="1.0" standalone="no"?>
<!DOCTYPE svg PUBLIC "-//W3C//DTD SVG 20010904//EN"
 "http://www.w3.org/TR/2001/REC-SVG-20010904/DTD/svg10.dtd">
<svg version="1.0" xmlns="http://www.w3.org/2000/svg"
 width="500.000000pt" height="500.000000pt" viewBox="0 0 500.000000 500.000000"
 preserveAspectRatio="xMidYMid meet">
<metadata>
Created by potrace 1.14, written by Peter Selinger 2001-2017
</metadata>
<g transform="translate(0.000000,500.000000) scale(0.100000,-0.100000)"
fill="#000000" stroke="none">
<path d="M2347 3724 c-1 -1 -33 -5 -70 -8 -37 -3 -89 -11 -115 -17 -26 -6 -54
-12 -62 -14 -44 -9 -182 -60 -235 -87 -81 -41 -231 -145 -284 -199 -45 -44
-161 -184 -185 -222 -61 -98 -136 -261 -127 -276 10 -15 34 7 93 84 52 68 214
222 255 243 16 8 35 20 43 27 63 53 297 143 420 160 157 22 372 8 480 -33 8
-3 18 -4 23 -4 4 1 7 -3 7 -10 0 -6 3 -9 6 -5 15 15 200 -118 254 -183 55 -66
109 -160 127 -220 36 -120 13 -279 -55 -383 -35 -55 -107 -124 -152 -147 -98
-50 -231 -40 -297 22 l-22 20 11 -36 c23 -75 118 -158 217 -191 69 -22 192
-16 269 15 59 23 179 108 228 161 36 39 89 130 122 206 55 130 64 311 23 458
-65 231 -245 433 -481 542 -87 40 -225 78 -325 88 -61 7 -164 12 -168 9z
m-179 -205 c-2 -6 -8 -10 -13 -10 -5 0 -11 4 -13 10 -2 6 4 11 13 11 9 0 15
-5 13 -11z m362 -19 c7 -14 6 -23 -6 -34 -19 -20 -29 -20 -47 -1 -18 18 -11
52 12 58 21 5 29 0 41 -23z m512 -215 c0 -5 -5 -11 -11 -13 -6 -2 -11 4 -11
13 0 9 5 15 11 13 6 -2 11 -8 11 -13z m128 -253 c0 -13 -12 -22 -22 -16 -10 6
-1 24 13 24 5 0 9 -4 9 -8z m53 -357 c4 -8 2 -17 -4 -21 -12 -7 -41 15 -33 27
8 14 31 11 37 -6z m-53 -160 c-13 -16 -40 -9 -40 9 0 21 12 26 32 15 15 -8 17
-13 8 -24z"/>
<path d="M3340 3417 c0 -7 6 -21 14 -32 43 -63 116 -208 141 -285 26 -76 26
-325 1 -420 -69 -254 -236 -439 -476 -522 -195 -67 -392 -27 -539 111 -53 49
-111 138 -111 169 0 5 -7 15 -15 22 -9 7 -14 19 -11 26 3 7 1 16 -4 19 -8 5
-5 47 6 69 3 6 -6 -2 -20 -19 -37 -42 -67 -128 -70 -199 -9 -200 107 -415 292
-539 129 -88 365 -142 507 -116 22 4 57 10 78 13 47 7 209 69 256 98 56 34
162 121 201 164 75 83 157 241 191 369 27 103 33 289 13 395 -29 153 -85 295
-169 426 -45 70 -137 172 -214 237 -34 28 -71 36 -71 14z m60 -1373 c0 -8 -7
-14 -15 -14 -15 0 -21 21 -9 33 10 9 24 -2 24 -19z"/>
<path d="M2207 3324 c-1 -1 -28 -4 -60 -8 -161 -17 -371 -103 -503 -206 -76
-60 -185 -175 -234 -248 -28 -40 -50 -75 -50 -77 0 -2 -11 -28 -24 -57 -25
-57 -54 -141 -61 -180 -3 -12 -8 -34 -11 -48 -3 -14 -7 -78 -9 -142 -3 -127
17 -255 56 -358 12 -30 27 -71 34 -91 25 -66 98 -179 177 -271 79 -94 219
-218 245 -218 20 0 -3 36 -77 120 -97 111 -163 227 -209 368 -42 126 -46 158
-46 322 1 192 19 259 120 450 29 54 119 152 203 221 81 67 216 123 347 145 47
8 219 9 255 1 171 -36 261 -86 348 -193 93 -114 107 -224 47 -368 -7 -16 -6
-17 13 -7 30 16 66 67 99 136 24 53 27 72 27 155 -1 110 -25 188 -88 283 -91
138 -275 244 -457 263 -59 7 -138 11 -142 8z m-37 -74 c0 -21 -15 -27 -25 -10
-7 12 2 30 16 30 5 0 9 -9 9 -20z m-46 -63 c-8 -21 -28 -22 -45 -1 -11 14 -10
18 6 30 16 12 21 12 32 1 8 -7 11 -21 7 -30z m683 -221 c-4 -9 -13 -13 -22
-10 -18 7 -20 31 -2 37 17 6 31 -9 24 -27z"/>
<path d="M2238 2975 c-2 -2 -19 -6 -38 -9 -87 -13 -180 -54 -290 -127 -128
-84 -247 -224 -311 -364 -92 -204 -89 -494 7 -693 67 -140 203 -301 319 -379
122 -82 289 -152 414 -175 128 -22 336 -17 451 13 74 19 211 70 275 102 61 31
205 167 205 193 0 8 35 40 78 71 90 67 282 256 282 278 0 27 -27 16 -107 -43
-208 -154 -373 -231 -553 -260 -54 -8 -282 -9 -327 0 -71 14 -103 29 -109 54
-3 13 -10 24 -15 24 -5 0 -9 6 -9 13 0 6 -23 32 -50 57 -153 137 -184 169
-224 229 -90 136 -113 316 -61 481 27 85 102 213 161 275 16 16 28 33 26 38
-1 5 2 6 8 2 5 -3 10 -1 10 5 0 6 4 9 8 6 5 -3 18 2 28 12 11 9 26 18 34 20 8
2 18 8 21 14 12 20 129 10 180 -15 46 -23 47 -23 37 -3 -16 32 -95 104 -136
125 -72 36 -147 54 -229 56 -45 1 -84 1 -85 0z m609 -1436 c14 -14 6 -39 -12
-39 -18 0 -28 17 -21 35 6 18 18 19 33 4z"/>
<path d="M2453 2670 c-35 -14 -47 -47 -28 -76 16 -26 41 -32 47 -12 3 7 7 5
11 -6 4 -10 3 -15 -3 -11 -6 3 -10 -1 -10 -10 0 -11 7 -15 23 -12 58 10 82 42
65 86 -17 46 -56 61 -105 41z"/>
</g>
</svg>
