<?xml version="1.0" standalone="no"?>
<!DOCTYPE svg PUBLIC "-//W3C//DTD SVG 20010904//EN"
 "http://www.w3.org/TR/2001/REC-SVG-20010904/DTD/svg10.dtd">
<svg version="1.0" xmlns="http://www.w3.org/2000/svg"
 width="200.000000pt" height="200.000000pt" viewBox="0 0 200.000000 200.000000"
 preserveAspectRatio="xMidYMid meet">
<metadata>
Created by potrace 1.14, written by Peter Selinger 2001-2017
</metadata>
<g transform="translate(0.000000,200.000000) scale(0.100000,-0.100000)"
fill="#000000" stroke="none">
<path d="M805 1990 c-3 -5 -24 -11 -48 -15 -23 -4 -52 -13 -64 -21 -12 -8 -31
-14 -43 -14 -11 0 -20 -5 -20 -11 0 -5 -4 -7 -10 -4 -5 3 -10 3 -10 -2 0 -4
-20 -16 -45 -26 -25 -11 -45 -23 -45 -28 0 -5 -5 -9 -10 -9 -12 0 -73 -41 -78
-52 -2 -5 -9 -8 -15 -8 -7 0 -47 -36 -91 -80 -43 -44 -82 -80 -87 -80 -5 0 -6
-7 -3 -15 4 -8 -1 -17 -10 -21 -9 -3 -16 -10 -16 -14 0 -4 -16 -31 -35 -60
-19 -29 -38 -63 -41 -76 -3 -13 -10 -24 -14 -24 -5 0 -11 -14 -15 -30 -4 -17
-13 -44 -22 -60 -8 -17 -12 -37 -9 -45 3 -8 1 -15 -4 -15 -6 0 -10 -11 -10
-24 0 -14 -4 -27 -9 -30 -5 -3 -7 -19 -6 -36 1 -17 -1 -33 -6 -36 -12 -7 -12
-304 0 -304 5 0 7 -13 6 -30 -1 -16 1 -30 5 -30 4 0 10 -23 14 -50 4 -28 12
-50 17 -50 6 0 9 -7 6 -15 -4 -8 -2 -17 2 -20 5 -2 12 -21 15 -40 4 -19 10
-35 14 -35 7 0 33 -54 36 -73 0 -4 6 -11 11 -15 11 -7 31 -37 42 -62 4 -8 15
-22 25 -31 10 -9 18 -20 18 -24 0 -12 144 -155 157 -155 7 0 17 -9 23 -20 6
-11 15 -20 21 -20 9 0 65 -36 79 -50 9 -9 65 -34 73 -32 4 1 7 -3 7 -9 0 -5 4
-8 9 -4 5 3 12 1 16 -5 3 -5 15 -10 26 -10 10 0 19 -4 19 -9 0 -5 6 -8 13 -8
11 1 75 -16 117 -31 8 -3 29 -5 45 -6 17 -1 35 -4 40 -7 13 -9 267 -9 280 -1
5 3 23 7 40 9 48 3 129 25 136 35 3 5 8 9 10 8 11 -4 59 13 59 22 0 5 4 7 9 3
10 -6 84 25 89 38 2 4 18 14 35 22 45 21 70 37 85 58 7 9 19 17 25 17 15 0
157 144 157 158 0 6 6 15 13 19 6 4 26 28 42 53 16 25 34 48 38 51 5 3 8 8 7
10 -3 7 24 64 35 71 5 4 7 8 3 8 -4 0 3 25 17 56 24 55 24 58 24 365 0 216 -3
309 -10 309 -6 0 -9 9 -6 20 3 11 2 20 -3 20 -4 0 -11 16 -14 35 -4 19 -10 35
-14 35 -4 0 -13 12 -20 28 -24 51 -37 72 -45 72 -4 0 -6 4 -2 10 3 5 -4 20
-15 32 -12 13 -27 30 -35 39 -8 9 -15 20 -15 25 0 14 -190 194 -205 194 -8 0
-68 42 -76 53 -3 5 -8 8 -10 7 -7 -3 -64 24 -70 33 -3 5 -8 8 -10 7 -6 -2 -41
10 -74 26 -16 8 -51 17 -77 20 -27 4 -48 10 -48 14 0 11 -439 10 -445 0z"/>
</g>
</svg>
